<?xml version="1.0" standalone="no"?>
<!DOCTYPE svg PUBLIC "-//W3C//DTD SVG 20010904//EN"
 "http://www.w3.org/TR/2001/REC-SVG-20010904/DTD/svg10.dtd">
<svg version="1.0" xmlns="http://www.w3.org/2000/svg"
 width="431.000000pt" height="265.000000pt" viewBox="0 0 431.000000 265.000000"
 preserveAspectRatio="xMidYMid meet">

<g transform="translate(0.000000,265.000000) scale(0.100000,-0.100000)"
fill="#000000" stroke="none">
<path d="M0 1325 l0 -1325 2155 0 2155 0 0 1325 0 1325 -2155 0 -2155 0 0
-1325z m2018 1204 c-2 -5 -34 -21 -71 -34 -89 -31 -155 -74 -218 -143 -103
-112 -145 -228 -137 -375 10 -181 132 -331 335 -412 32 -13 73 -26 91 -30 l32
-7 0 229 0 229 40 39 40 39 0 -320 0 -320 -72 8 c-141 17 -283 81 -386 173
-190 171 -231 449 -97 652 79 120 190 203 337 254 90 31 112 35 106 18z m379
-14 c75 -23 163 -69 231 -122 48 -36 118 -128 152 -199 121 -251 -1 -550 -281
-688 -83 -41 -233 -85 -291 -86 -17 0 -18 22 -18 322 l0 322 40 -39 40 -39 0
-224 0 -225 43 7 c72 11 221 91 282 151 65 65 123 177 134 261 30 214 -116
449 -328 528 -36 14 -74 27 -83 30 -19 6 -25 26 -9 26 6 0 45 -11 88 -25z
m-1783 -1344 c33 -16 74 -44 91 -61 l29 -30 -27 -27 -27 -27 -32 31 c-53 49
-96 67 -168 67 -133 1 -236 -95 -248 -230 -11 -132 87 -252 222 -270 89 -13
186 52 213 141 l11 35 -79 0 -79 0 0 40 0 41 123 -3 122 -3 -1 -45 c-4 -98
-39 -166 -120 -231 -45 -36 -101 -52 -178 -51 -124 0 -256 104 -292 229 -49
170 40 348 205 408 20 8 67 14 105 14 56 1 79 -4 130 -28z m1036 -261 l0 -280
95 0 95 0 0 -35 0 -35 -135 0 -135 0 0 315 0 315 40 0 40 0 0 -280z m730 240
l0 -40 -130 0 -130 0 0 -100 0 -100 130 0 130 0 0 -40 0 -40 -130 0 -130 0 0
-100 0 -100 130 0 130 0 0 -35 0 -35 -170 0 -170 0 0 315 0 315 170 0 170 0 0
-40z m472 -211 l193 -251 3 251 2 251 40 0 40 0 0 -315 0 -315 -39 0 -40 0
-193 251 -193 252 -3 -252 -2 -251 -40 0 -40 0 0 315 0 315 40 0 39 0 193
-251z m558 -64 l0 -315 -40 0 -40 0 0 315 0 315 40 0 40 0 0 -315z m-2121 -8
c77 -163 141 -300 141 -302 0 -3 -18 -5 -40 -5 -39 0 -41 2 -70 60 l-31 61
-157 -3 -157 -3 -27 -57 c-27 -57 -29 -58 -69 -58 -35 0 -40 2 -34 19 6 19
250 534 275 581 6 12 15 18 20 14 4 -5 71 -143 149 -307z m2648 140 c44 -94
111 -234 147 -309 l65 -138 -43 0 -43 0 -26 60 -26 60 -159 0 -159 0 -27 -60
-27 -60 -44 0 -44 0 105 223 c58 122 124 261 146 310 23 48 44 87 47 87 3 0
43 -78 88 -173z m-2299 -697 c50 -31 74 -76 68 -128 -22 -169 -266 -158 -266
12 0 102 112 168 198 116z m311 9 c34 -12 33 -11 25 -33 -5 -12 -10 -13 -25
-5 -57 30 -148 2 -123 -39 10 -15 35 -24 111 -38 13 -2 30 -16 39 -29 14 -22
15 -30 3 -56 -22 -55 -88 -69 -172 -37 -30 12 -31 35 -1 29 101 -18 144 -9
144 30 0 22 -36 39 -79 39 -40 0 -81 35 -81 68 1 66 76 100 159 71z m-789 -54
l0 -55 80 0 80 0 0 55 c0 42 3 55 15 55 13 0 15 -21 15 -130 0 -107 -3 -130
-15 -130 -10 0 -15 15 -17 58 l-3 57 -75 0 -75 0 -3 -57 c-2 -43 -7 -58 -17
-58 -12 0 -15 23 -15 130 0 109 2 130 15 130 12 0 15 -13 15 -55z m1078 35
c14 -14 22 -33 22 -55 0 -51 -31 -75 -96 -75 l-53 0 -3 -52 c-2 -41 -7 -54
-20 -56 -16 -3 -18 8 -18 127 l0 131 73 0 c60 0 77 -4 95 -20z m142 -110 c0
-109 -2 -130 -15 -130 -13 0 -15 21 -15 130 0 109 2 130 15 130 13 0 15 -21
15 -130z m280 115 c0 -11 -12 -15 -45 -15 l-45 0 0 -115 c0 -96 -3 -115 -15
-115 -12 0 -15 19 -15 115 l0 115 -45 0 c-33 0 -45 4 -45 15 0 12 18 15 105
15 87 0 105 -3 105 -15z m221 -105 c26 -63 48 -121 49 -128 0 -27 -35 -6 -44
26 -9 32 -9 32 -75 32 l-67 0 -13 -35 c-11 -31 -41 -50 -41 -25 0 11 75 203
91 233 6 11 19 17 31 15 15 -2 32 -30 69 -118z m159 10 l0 -109 72 -3 c60 -2
73 -6 76 -20 3 -16 -6 -18 -87 -18 l-91 0 0 130 c0 109 2 130 15 130 12 0 15
-19 15 -110z"/>
<path d="M1072 880 l-61 -130 124 0 124 0 -61 128 c-33 70 -61 128 -62 129 -2
2 -30 -56 -64 -127z"/>
<path d="M3786 880 c-31 -66 -56 -123 -56 -125 0 -3 54 -5 121 -5 66 0 119 4
117 8 -17 46 -114 242 -119 242 -3 0 -31 -54 -63 -120z"/>
<path d="M1529 282 c-47 -23 -65 -63 -50 -112 34 -115 209 -75 187 43 -12 66
-77 99 -137 69z"/>
<path d="M2110 245 l0 -45 44 0 c27 0 51 6 60 16 36 36 6 74 -60 74 l-44 0 0
-45z"/>
<path d="M2785 238 c-9 -24 -19 -49 -22 -55 -4 -9 8 -13 42 -13 43 0 46 2 39
22 -11 34 -34 88 -38 88 -2 0 -12 -19 -21 -42z"/>
</g>
</svg>
